<svg fill="none" height="24" viewBox="0 0 24 24" width="24" xmlns="http://www.w3.org/2000/svg">
    <g clip-path="url(#clip0_125_5151)">
        <path
            d="M12 16.209C14.535 16.209 16.639 18.977 17.035 22.609C17.0623 22.8532 17.1785 23.0787 17.3614 23.2427C17.5444 23.4067 17.7813 23.4976 18.027 23.498C18.2469 23.4976 18.4599 23.4218 18.6305 23.283C18.8011 23.1443 18.9188 22.9512 18.964 22.736C19.1833 21.667 19.2929 20.5783 19.291 19.487C19.3056 17.4783 18.9198 15.4869 18.156 13.629C19.611 12.178 20.749 9.913 20.749 6.364C20.749 3.086 18.627 0.5 16.011 0.5C15.2092 0.500145 14.4205 0.703919 13.7189 1.09222C13.0174 1.48051 12.4259 2.04061 12 2.72C11.5741 2.04061 10.9826 1.48051 10.2811 1.09222C9.57953 0.703919 8.79085 0.500145 7.98901 0.5C5.37301 0.5 3.25101 3.086 3.25101 6.366C3.25101 9.915 4.38901 12.18 5.84401 13.631C5.08025 15.4889 4.69441 17.4803 4.70901 19.489C4.70712 20.5803 4.81669 21.669 5.03601 22.738C5.08117 22.9532 5.19891 23.1463 5.36949 23.285C5.54007 23.4237 5.75314 23.4996 5.97301 23.5C6.21869 23.4996 6.45561 23.4087 6.63857 23.2447C6.82154 23.0807 6.93774 22.8552 6.96501 22.611C7.36101 18.977 9.46501 16.209 12 16.209Z"
            stroke="#F6F9FF" stroke-linecap="round" stroke-linejoin="round" stroke-width="2" />
        <path
            d="M10.5 11.5V13C10.5 13.1326 10.5527 13.2598 10.6464 13.3536C10.7402 13.4473 10.8674 13.5 11 13.5H13C13.1326 13.5 13.2598 13.4473 13.3536 13.3536C13.4473 13.2598 13.5 13.1326 13.5 13V11.5H15C15.1326 11.5 15.2598 11.4473 15.3536 11.3536C15.4473 11.2598 15.5 11.1326 15.5 11V9C15.5 8.86739 15.4473 8.74021 15.3536 8.64645C15.2598 8.55268 15.1326 8.5 15 8.5H13.5V7C13.5 6.86739 13.4473 6.74021 13.3536 6.64645C13.2598 6.55268 13.1326 6.5 13 6.5H11C10.8674 6.5 10.7402 6.55268 10.6464 6.64645C10.5527 6.74021 10.5 6.86739 10.5 7V8.5H9C8.86739 8.5 8.74021 8.55268 8.64645 8.64645C8.55268 8.74021 8.5 8.86739 8.5 9V11C8.5 11.1326 8.55268 11.2598 8.64645 11.3536C8.74021 11.4473 8.86739 11.5 9 11.5H10.5Z"
            stroke="#F6F9FF" stroke-linecap="round" stroke-linejoin="round" stroke-width="2" />
    </g>
    <defs>
        <clipPath id="clip0_125_5151">
            <rect fill="white" height="24" width="24" />
        </clipPath>
    </defs>
</svg>