<svg fill="none" height="24" viewBox="0 0 16 24" width="16" xmlns="http://www.w3.org/2000/svg">
    <g clip-path="url(#clip0_125_5163)">
        <path
            d="M16.9265 23.1735V19.7954C18.8689 19.8064 19.8575 19.666 20.5395 18.983C21.4116 18.1109 21.329 14.4292 21.329 14.4292C21.329 14.4292 22.1583 14.4601 22.7846 14.4352C22.8941 14.4307 23.0013 14.4015 23.098 14.3498C23.1947 14.2981 23.2785 14.2252 23.3431 14.1365C23.432 13.9459 23.4665 13.7343 23.4426 13.5252C23.5561 11.9642 21.3579 9.28603 21.3579 8.50848C21.3579 3.62015 16.7424 0.826538 12.5519 0.826538"
            stroke="#F6F9FF" stroke-linecap="round" stroke-linejoin="round" stroke-width="2" />
        <path d="M7.21063 19.7725V23.1735" stroke="#F6F9FF" stroke-linecap="round"
            stroke-linejoin="round" stroke-width="2" />
        <path
            d="M7.90355 17.3433C9.78182 17.3433 11.3045 13.6459 11.3045 9.08492C11.3045 4.52394 9.78182 0.826538 7.90355 0.826538C6.02527 0.826538 4.50262 4.52394 4.50262 9.08492C4.50262 13.6459 6.02527 17.3433 7.90355 17.3433Z"
            stroke="#F6F9FF" stroke-linecap="round" stroke-linejoin="round" stroke-width="2" />
        <path
            d="M9.60395 12.0297C13.5539 9.74919 15.9946 6.58184 15.0555 4.9552C14.1163 3.32857 10.153 3.85862 6.20303 6.13911C2.25311 8.4196 -0.187618 11.587 0.75152 13.2136C1.69066 14.8402 5.65403 14.3102 9.60395 12.0297Z"
            stroke="#F6F9FF" stroke-linecap="round" stroke-linejoin="round" stroke-width="2" />
        <path
            d="M15.055 13.2141C15.9941 11.5875 13.5534 8.42016 9.60347 6.13967C5.65354 3.85918 1.69017 3.32912 0.751032 4.95576C-0.188106 6.5824 2.25261 9.74975 6.20254 12.0302C10.1525 14.3107 14.1158 14.8408 15.055 13.2141Z"
            stroke="#F6F9FF" stroke-linecap="round" stroke-linejoin="round" stroke-width="2" />
        <path
            d="M7.90301 9.33481C7.76555 9.33481 7.65411 9.22338 7.65411 9.08592C7.65411 8.94846 7.76555 8.83702 7.90301 8.83702"
            stroke="#F6F9FF" stroke-width="2" />
        <path
            d="M7.90302 9.33481C8.04048 9.33481 8.15192 9.22338 8.15192 9.08592C8.15192 8.94846 8.04048 8.83702 7.90302 8.83702"
            stroke="#F6F9FF" stroke-width="2" />
    </g>
    <defs>
        <clipPath id="clip0_125_5163">
            <rect fill="white" height="24" width="24" />
        </clipPath>
    </defs>
</svg>