<svg fill="none" height="24" viewBox="0 0 24 24" width="24" xmlns="http://www.w3.org/2000/svg">
    <g clip-path="url(#clip0_125_5157)">
        <path d="M12 5.38286V7.95429" stroke="#F6F9FF" stroke-linecap="round"
            stroke-linejoin="round" stroke-width="3.42857" />
        <path
            d="M14.5885 12.2571C15.3971 11.6691 16.0516 10.8944 16.4963 9.99891C16.941 9.10349 17.1629 8.11387 17.1428 7.11428C17.2472 5.63696 16.7665 4.17781 15.8042 3.05199C14.842 1.92615 13.4755 1.22399 12 1.09714C10.5258 1.21973 9.15942 1.91825 8.19678 3.04134C7.23412 4.16444 6.7528 5.62162 6.8571 7.09714C6.83709 8.09672 7.05889 9.08635 7.50363 9.98177C7.94835 10.8772 8.60284 11.6519 9.41139 12.24L3.90853 18.5486C3.77893 18.7053 3.70801 18.9024 3.70801 19.1057C3.70801 19.309 3.77893 19.5062 3.90853 19.6629L6.2571 22.5771C6.33248 22.6788 6.43074 22.7613 6.54392 22.8178C6.65709 22.8744 6.782 22.9035 6.90853 22.9029C7.03422 22.9042 7.15876 22.8789 7.27398 22.8286C7.38921 22.7784 7.4925 22.7043 7.5771 22.6114C9.242 20.7285 10.723 18.6907 12 16.5257C13.2878 18.6921 14.7803 20.73 16.4571 22.6114C16.5417 22.7043 16.645 22.7784 16.7602 22.8286C16.8754 22.8789 17 22.9042 17.1257 22.9029C17.2522 22.9035 17.3772 22.8744 17.4903 22.8178C17.6035 22.7613 17.7017 22.6788 17.7771 22.5771L20.1257 19.6629C20.2539 19.5089 20.3242 19.3147 20.3242 19.1143C20.3242 18.9139 20.2539 18.7197 20.1257 18.5657L14.5885 12.2571Z"
            stroke="#F6F9FF" stroke-linecap="round" stroke-linejoin="round"
            stroke-width="3.42857" />
    </g>
    <defs>
        <clipPath id="clip0_125_5157">
            <rect fill="white" height="24" width="24" />
        </clipPath>
    </defs>
</svg>